<svg width="101" height="13" viewBox="0 0 101 13" fill="none" xmlns="http://www.w3.org/2000/svg">
<path d="M93.5555 12.1031V4.09944H96.7439V12.1031H93.5555ZM96.7439 7.77592L95.2636 6.45825C95.6757 5.59064 96.1529 4.9562 96.6951 4.55494C97.2482 4.14282 97.9369 3.93677 98.7611 3.93677C99.1298 3.93677 99.4444 3.98015 99.7046 4.06691C99.9758 4.15367 100.193 4.27839 100.355 4.44106L98.5659 6.97881C98.49 6.89205 98.3761 6.82156 98.2243 6.76733C98.0833 6.70226 97.9152 6.66973 97.72 6.66973C97.3946 6.66973 97.1506 6.76733 96.9879 6.96254C96.8253 7.14691 96.7439 7.41804 96.7439 7.77592Z" fill="#FCFF81"/>
<path d="M88.9266 12.2983C87.9939 12.2983 87.1751 12.1248 86.4702 11.7778C85.7652 11.4199 85.2122 10.9264 84.8109 10.2974C84.4205 9.65755 84.2253 8.9255 84.2253 8.10128C84.2253 7.2879 84.415 6.5667 84.7946 5.93769C85.185 5.30867 85.7164 4.81522 86.3888 4.45733C87.0612 4.0886 87.8204 3.90424 88.6663 3.90424C89.5014 3.90424 90.2388 4.07776 90.8787 4.4248C91.5186 4.761 92.0174 5.23276 92.3753 5.84008C92.7441 6.4474 92.9284 7.14149 92.9284 7.92233C92.9284 8.08501 92.9176 8.25853 92.8959 8.4429C92.885 8.61642 92.8525 8.82248 92.7983 9.06107L85.5755 9.10987V7.15776L91.6107 7.10895L90.1304 7.97114C90.1304 7.53733 90.0762 7.18487 89.9677 6.91374C89.8701 6.63177 89.7183 6.42029 89.5122 6.27931C89.3062 6.13832 89.0459 6.06783 88.7314 6.06783C88.406 6.06783 88.1241 6.14917 87.8855 6.31184C87.6469 6.47452 87.4625 6.70769 87.3324 7.01135C87.2131 7.31501 87.1534 7.68374 87.1534 8.11755C87.1534 8.56219 87.2185 8.93635 87.3486 9.24001C87.4896 9.53283 87.6903 9.75515 87.9505 9.90698C88.2108 10.0588 88.5362 10.1347 88.9266 10.1347C89.3062 10.1347 89.6369 10.0751 89.9189 9.95579C90.2117 9.82564 90.4774 9.62501 90.716 9.35388L92.3103 10.9318C91.909 11.3873 91.4264 11.729 90.8624 11.9567C90.2985 12.1844 89.6532 12.2983 88.9266 12.2983Z" fill="#FCFF81"/>
<path d="M78.6235 12.2658C77.8318 12.2658 77.1377 12.0868 76.5412 11.7289C75.9556 11.371 75.4947 10.883 75.1585 10.2648C74.8331 9.63582 74.6704 8.91463 74.6704 8.10125C74.6704 7.28787 74.8331 6.56667 75.1585 5.93766C75.4947 5.30864 75.9556 4.82061 76.5412 4.47357C77.1377 4.11568 77.8318 3.93674 78.6235 3.93674C79.1007 3.93674 79.5507 4.01808 79.9737 4.18075C80.3966 4.33259 80.7545 4.54949 81.0473 4.83146C81.351 5.11343 81.5408 5.43878 81.6167 5.80751V10.2323C81.5408 10.601 81.351 10.9427 81.0473 11.2572C80.7545 11.5608 80.3966 11.8048 79.9737 11.9892C79.5507 12.1736 79.1007 12.2658 78.6235 12.2658ZM79.2091 9.46773C79.4802 9.46773 79.7134 9.4135 79.9086 9.30505C80.1038 9.18575 80.2557 9.02308 80.3641 8.81702C80.4834 8.61096 80.543 8.37237 80.543 8.10125C80.543 7.83012 80.4888 7.59695 80.3804 7.40174C80.2719 7.19568 80.1147 7.03301 79.9086 6.91371C79.7134 6.79442 79.4857 6.73477 79.2254 6.73477C78.9651 6.73477 78.7319 6.79442 78.5259 6.91371C78.3307 7.03301 78.1734 7.19568 78.0541 7.40174C77.9348 7.6078 77.8752 7.84097 77.8752 8.10125C77.8752 8.36153 77.9294 8.5947 78.0378 8.80075C78.1571 9.00681 78.3198 9.16949 78.5259 9.28878C78.7319 9.40808 78.9597 9.46773 79.2091 9.46773ZM83.5526 12.1031H80.4454V9.95575L80.8847 8.00364L80.3641 6.0678V0.19519H83.5526V12.1031Z" fill="#FCFF81"/>
<path d="M70.9326 12.1031V7.61325C70.9326 7.29874 70.8404 7.06015 70.656 6.89747C70.4825 6.72395 70.2602 6.63719 69.9891 6.63719C69.8047 6.63719 69.6366 6.67515 69.4848 6.75106C69.3438 6.82698 69.2299 6.94085 69.1431 7.09268C69.0672 7.23367 69.0293 7.40719 69.0293 7.61325L67.7929 7.06015C67.7929 6.40944 67.9339 5.85092 68.2159 5.38458C68.5087 4.91825 68.9046 4.56036 69.4034 4.31092C69.9131 4.06149 70.4879 3.93677 71.1278 3.93677C71.7026 3.93677 72.2123 4.06691 72.6569 4.32719C73.1124 4.57663 73.4703 4.92367 73.7306 5.36832C73.9909 5.80212 74.121 6.30642 74.121 6.8812V12.1031H70.9326ZM65.8408 12.1031V4.09944H69.0293V12.1031H65.8408Z" fill="#FCFF81"/>
<path d="M55.8622 12.1031V3.77408C55.8622 3.08 56.014 2.45099 56.3177 1.88704C56.6213 1.31225 57.0606 0.85676 57.6353 0.520563C58.2101 0.173521 58.9042 0 59.7176 0C60.0429 0 60.352 0.0325351 60.6448 0.0976053C60.9485 0.162676 61.2522 0.281971 61.5558 0.455493L60.2382 2.92817C60.1406 2.87394 60.0484 2.84141 59.9616 2.83056C59.8857 2.80887 59.8044 2.79803 59.7176 2.79803C59.5007 2.79803 59.3326 2.8631 59.2133 2.99324C59.1048 3.12338 59.0506 3.2969 59.0506 3.5138V12.1031H55.8622ZM54.2354 6.70225V4.09944H62.5482V6.70225H54.2354ZM61.4908 12.1031V4.09944H64.6792V12.1031H61.4908ZM63.085 3.64394C62.6512 3.64394 62.2879 3.49753 61.9951 3.20472C61.7131 2.90106 61.5721 2.53232 61.5721 2.09852C61.5721 1.66472 61.7131 1.30141 61.9951 1.00859C62.2879 0.704929 62.6512 0.553098 63.085 0.553098C63.5296 0.553098 63.8929 0.704929 64.1749 1.00859C64.4569 1.30141 64.5979 1.66472 64.5979 2.09852C64.5979 2.53232 64.4569 2.90106 64.1749 3.20472C63.8929 3.49753 63.5296 3.64394 63.085 3.64394Z" fill="#FCFF81"/>
<path d="M49.736 12.5755C48.8034 12.5755 47.9846 12.402 47.2796 12.055C46.5747 11.6971 46.0216 11.2036 45.6203 10.5746C45.2299 9.93477 45.0347 9.20272 45.0347 8.3785C45.0347 7.56512 45.2245 6.84392 45.6041 6.21491C45.9945 5.58589 46.5259 5.09244 47.1983 4.73456C47.8707 4.36582 48.6298 4.18146 49.4758 4.18146C50.3108 4.18146 51.0483 4.35498 51.6881 4.70202C52.328 5.03822 52.8269 5.50998 53.1848 6.1173C53.5535 6.72463 53.7379 7.41871 53.7379 8.19956C53.7379 8.36223 53.727 8.53575 53.7053 8.72012C53.6945 8.89364 53.662 9.0997 53.6077 9.33829L46.3849 9.38709V7.43498L52.4202 7.38618L50.9398 8.24836C50.9398 7.81456 50.8856 7.46209 50.7772 7.19096C50.6796 6.90899 50.5277 6.69751 50.3217 6.55653C50.1156 6.41554 49.8553 6.34505 49.5408 6.34505C49.2155 6.34505 48.9335 6.42639 48.6949 6.58906C48.4563 6.75174 48.272 6.98491 48.1418 7.28857C48.0225 7.59223 47.9629 7.96096 47.9629 8.39477C47.9629 8.83942 48.0279 9.21357 48.1581 9.51723C48.2991 9.81005 48.4997 10.0324 48.76 10.1842C49.0203 10.336 49.3456 10.412 49.736 10.412C50.1156 10.412 50.4464 10.3523 50.7284 10.233C51.0212 10.1029 51.2869 9.90223 51.5255 9.6311L53.1197 11.2091C52.7184 11.6646 52.2358 12.0062 51.6719 12.2339C51.1079 12.4617 50.4627 12.5755 49.736 12.5755Z" fill="white"/>
<path d="M41.1942 12.3803V4.37666H44.3826V12.3803H41.1942ZM42.7884 3.62834C42.322 3.62834 41.9316 3.47109 41.6171 3.15658C41.3135 2.83123 41.1616 2.43539 41.1616 1.96905C41.1616 1.50271 41.3135 1.11229 41.6171 0.797782C41.9316 0.47243 42.322 0.309753 42.7884 0.309753C43.2656 0.309753 43.656 0.47243 43.9596 0.797782C44.2633 1.11229 44.4151 1.50271 44.4151 1.96905C44.4151 2.43539 44.2633 2.83123 43.9596 3.15658C43.656 3.47109 43.2656 3.62834 42.7884 3.62834Z" fill="white"/>
<path d="M34.6956 12.3803L31.556 4.37665H34.9396L36.7779 11.1928H35.6229L37.4448 4.37665H40.8122L37.6726 12.3803H34.6956Z" fill="white"/>
<path d="M27.3237 4.18146C28.2021 4.18146 28.9833 4.36552 29.6665 4.73419C30.3497 5.09203 30.8865 5.58576 31.2769 6.21466C31.6781 6.84365 31.8784 7.55963 31.8784 8.36212C31.8784 9.16466 31.6839 9.88632 31.2935 10.5262C30.9031 11.1659 30.3662 11.6702 29.6831 12.0389C28.9999 12.3968 28.2188 12.576 27.3403 12.576C26.4619 12.576 25.675 12.3968 24.981 12.0389C24.298 11.6702 23.7562 11.1658 23.355 10.5262C22.9646 9.88632 22.7691 9.16466 22.7691 8.36212C22.7691 7.55963 22.9646 6.84365 23.355 6.21466C23.7454 5.5858 24.2822 5.09202 24.9653 4.73419C25.6593 4.36559 26.4455 4.18149 27.3237 4.18146ZM28.73 6.87872C28.4432 6.87872 28.1872 6.94485 27.9624 7.07697C27.7376 7.20554 27.561 7.38224 27.4331 7.60724C27.3014 7.83221 27.2358 8.08949 27.2358 8.37872C27.2359 8.66786 27.3014 8.92661 27.4331 9.15509C27.561 9.38009 27.7376 9.55679 27.9624 9.68536C28.1872 9.81391 28.4432 9.87872 28.73 9.87872C29.0166 9.87867 29.2739 9.8138 29.5024 9.68536C29.731 9.55327 29.9117 9.37508 30.0435 9.15021C30.1714 8.92164 30.2358 8.66215 30.2358 8.37286C30.2358 8.08368 30.1713 7.82631 30.0435 7.60138C29.9117 7.37651 29.731 7.19963 29.5024 7.07111C29.274 6.94275 29.0165 6.87878 28.73 6.87872Z" fill="white"/>
<path d="M17.7901 4.18146C18.6685 4.18146 19.4497 4.36552 20.1329 4.73419C20.816 5.09203 21.3528 5.58576 21.7432 6.21466C22.1445 6.84365 22.3448 7.55963 22.3448 8.36212C22.3448 9.16466 22.1503 9.88632 21.7598 10.5262C21.3695 11.1659 20.8326 11.6702 20.1495 12.0389C19.4663 12.3968 18.6851 12.576 17.8067 12.576C16.9283 12.576 16.1414 12.3968 15.4473 12.0389C14.7644 11.6702 14.2225 11.1658 13.8214 10.5262C13.4309 9.88632 13.2354 9.16466 13.2354 8.36212C13.2354 7.55963 13.431 6.84365 13.8214 6.21466C14.2118 5.5858 14.7486 5.09202 15.4317 4.73419C16.1257 4.36559 16.9119 4.18149 17.7901 4.18146ZM19.1964 6.87872C18.9096 6.87872 18.6536 6.94485 18.4288 7.07697C18.204 7.20554 18.0274 7.38224 17.8995 7.60724C17.7678 7.83221 17.7022 8.08949 17.7022 8.37872C17.7023 8.66786 17.7678 8.92661 17.8995 9.15509C18.0274 9.38009 18.204 9.55679 18.4288 9.68536C18.6536 9.81391 18.9096 9.87872 19.1964 9.87872C19.4829 9.87867 19.7403 9.8138 19.9688 9.68536C20.1974 9.55327 20.3781 9.37508 20.5098 9.15021C20.6377 8.92164 20.7022 8.66215 20.7022 8.37286C20.7022 8.08368 20.6377 7.82631 20.5098 7.60138C20.3781 7.37651 20.1974 7.19963 19.9688 7.07111C19.7403 6.94275 19.4829 6.87878 19.1964 6.87872Z" fill="white"/>
<path d="M0 12.3803V4.37667H3.18845V12.3803H0ZM4.92908 12.3803V7.79286C4.92908 7.52174 4.84775 7.31026 4.68507 7.15843C4.52239 6.99575 4.31634 6.91441 4.0669 6.91441C3.89338 6.91441 3.73613 6.95237 3.59514 7.02829C3.465 7.09336 3.36197 7.19096 3.28606 7.3211C3.22099 7.45124 3.18845 7.6085 3.18845 7.79286L1.95211 7.33737C1.95211 6.68667 2.0931 6.12814 2.37507 5.66181C2.66789 5.19547 3.05831 4.83758 3.54634 4.58814C4.03437 4.33871 4.58746 4.21399 5.20563 4.21399C5.74789 4.21399 6.23592 4.34413 6.66972 4.60441C7.11437 4.86469 7.46683 5.228 7.72711 5.69434C7.98739 6.14983 8.11753 6.69209 8.11753 7.3211V12.3803H4.92908ZM9.85817 12.3803V7.79286C9.85817 7.52174 9.77683 7.31026 9.61415 7.15843C9.45148 6.99575 9.24542 6.91441 8.99599 6.91441C8.82246 6.91441 8.66521 6.95237 8.52423 7.02829C8.39408 7.09336 8.29106 7.19096 8.21514 7.3211C8.15007 7.45124 8.11753 7.6085 8.11753 7.79286L6.24676 7.80913C6.24676 7.06082 6.39317 6.42096 6.68599 5.88955C6.98965 5.3473 7.40718 4.93519 7.93859 4.65321C8.47 4.3604 9.07732 4.21399 9.76056 4.21399C10.4004 4.21399 10.9644 4.34955 11.4524 4.62068C11.9513 4.89181 12.3417 5.28223 12.6237 5.79195C12.9056 6.30167 13.0466 6.91441 13.0466 7.63019V12.3803H9.85817Z" fill="white"/>
</svg>
